<svg width="250" height="250" viewBox="0 0 250 250" fill="none" xmlns="http://www.w3.org/2000/svg">
<rect width="250" height="250" rx="20" fill="#F37513"/>
<path d="M34.8391 197.2H44.8391V107.2H34.8391V74.4004H126.639C143.839 74.4004 156.972 77.9337 166.039 85.0004C175.106 92.0671 179.639 103.534 179.639 119.4C179.639 128.334 177.839 136.067 174.239 142.6C170.639 149.134 165.506 153.667 158.839 156.2L159.039 158.2C171.839 160.2 178.239 168.067 178.239 181.8V197.2H187.639V230H124.239V183C124.239 177.8 123.439 173.867 121.839 171.2C120.372 168.534 117.972 166.734 114.639 165.8C111.439 164.867 106.839 164.4 100.839 164.4V197.2H114.039V230H34.8391V197.2ZM111.639 140C115.506 140 118.372 139 120.239 137C122.239 134.867 123.239 131.6 123.239 127.2V120C123.239 115.6 122.239 112.4 120.239 110.4C118.372 108.267 115.506 107.2 111.639 107.2H100.839V140H111.639Z" fill="white"/>
<path d="M198.8 230V197.2H230V230H198.8Z" fill="white"/>
</svg>
